<mxfile host="app.diagrams.net" agent="Mozilla/5.0 (Macintosh; Intel Mac OS X 10_15_7) AppleWebKit/605.1.15 (KHTML, like Gecko) Version/18.5 Safari/605.1.15" version="27.1.3">
  <diagram name="Page-1" id="mcOuH7iONtjyaMAI37Ni">
    <mxGraphModel dx="1346" dy="1196" grid="1" gridSize="10" guides="1" tooltips="1" connect="1" arrows="1" fold="1" page="1" pageScale="1" pageWidth="1169" pageHeight="827" math="0" shadow="0">
      <root>
        <mxCell id="0" />
        <mxCell id="1" parent="0" />
        <mxCell id="HHDmBZZF9b4SMVAAgY-t-6" style="edgeStyle=orthogonalEdgeStyle;rounded=0;orthogonalLoop=1;jettySize=auto;html=1;entryX=0.5;entryY=0;entryDx=0;entryDy=0;" edge="1" parent="1" source="HHDmBZZF9b4SMVAAgY-t-1" target="HHDmBZZF9b4SMVAAgY-t-2">
          <mxGeometry relative="1" as="geometry">
            <mxPoint x="220" y="90" as="targetPoint" />
          </mxGeometry>
        </mxCell>
        <mxCell id="HHDmBZZF9b4SMVAAgY-t-1" value="Inicio" style="ellipse;whiteSpace=wrap;html=1;fontSize=14;" vertex="1" parent="1">
          <mxGeometry x="180" width="80" height="40" as="geometry" />
        </mxCell>
        <mxCell id="HHDmBZZF9b4SMVAAgY-t-17" style="edgeStyle=orthogonalEdgeStyle;rounded=0;orthogonalLoop=1;jettySize=auto;html=1;entryX=0.5;entryY=0;entryDx=0;entryDy=0;" edge="1" parent="1" source="HHDmBZZF9b4SMVAAgY-t-2" target="HHDmBZZF9b4SMVAAgY-t-59">
          <mxGeometry relative="1" as="geometry">
            <mxPoint x="220" y="150" as="targetPoint" />
          </mxGeometry>
        </mxCell>
        <mxCell id="HHDmBZZF9b4SMVAAgY-t-2" value="Selección tipo de nodo federado" style="rounded=1;whiteSpace=wrap;html=1;" vertex="1" parent="1">
          <mxGeometry x="160" y="80" width="120" height="40" as="geometry" />
        </mxCell>
        <mxCell id="HHDmBZZF9b4SMVAAgY-t-62" style="edgeStyle=orthogonalEdgeStyle;rounded=0;orthogonalLoop=1;jettySize=auto;html=1;entryX=0.5;entryY=0;entryDx=0;entryDy=0;" edge="1" parent="1" source="HHDmBZZF9b4SMVAAgY-t-59" target="HHDmBZZF9b4SMVAAgY-t-60">
          <mxGeometry relative="1" as="geometry" />
        </mxCell>
        <mxCell id="HHDmBZZF9b4SMVAAgY-t-59" value="Cargar configuración base del modelo" style="rounded=1;whiteSpace=wrap;html=1;" vertex="1" parent="1">
          <mxGeometry x="160" y="160" width="120" height="40" as="geometry" />
        </mxCell>
        <mxCell id="HHDmBZZF9b4SMVAAgY-t-60" value="Cargar datasets de entrenamiento y evaluación" style="rounded=1;whiteSpace=wrap;html=1;" vertex="1" parent="1">
          <mxGeometry x="160" y="240" width="120" height="40" as="geometry" />
        </mxCell>
        <mxCell id="HHDmBZZF9b4SMVAAgY-t-63" style="edgeStyle=orthogonalEdgeStyle;rounded=0;orthogonalLoop=1;jettySize=auto;html=1;exitX=0.5;exitY=1;exitDx=0;exitDy=0;entryX=0.5;entryY=0;entryDx=0;entryDy=0;" edge="1" parent="1" source="HHDmBZZF9b4SMVAAgY-t-60" target="HHDmBZZF9b4SMVAAgY-t-64">
          <mxGeometry relative="1" as="geometry">
            <mxPoint x="220" y="210" as="sourcePoint" />
            <mxPoint x="220" y="320" as="targetPoint" />
          </mxGeometry>
        </mxCell>
        <mxCell id="HHDmBZZF9b4SMVAAgY-t-67" style="edgeStyle=orthogonalEdgeStyle;rounded=0;orthogonalLoop=1;jettySize=auto;html=1;entryX=0.5;entryY=0;entryDx=0;entryDy=0;" edge="1" parent="1" source="HHDmBZZF9b4SMVAAgY-t-64" target="HHDmBZZF9b4SMVAAgY-t-66">
          <mxGeometry relative="1" as="geometry" />
        </mxCell>
        <mxCell id="HHDmBZZF9b4SMVAAgY-t-64" value="Distribución del modelo global" style="rounded=1;whiteSpace=wrap;html=1;" vertex="1" parent="1">
          <mxGeometry x="160" y="320" width="120" height="40" as="geometry" />
        </mxCell>
        <mxCell id="HHDmBZZF9b4SMVAAgY-t-70" style="edgeStyle=orthogonalEdgeStyle;rounded=0;orthogonalLoop=1;jettySize=auto;html=1;entryX=0.5;entryY=0;entryDx=0;entryDy=0;" edge="1" parent="1" source="HHDmBZZF9b4SMVAAgY-t-66" target="HHDmBZZF9b4SMVAAgY-t-69">
          <mxGeometry relative="1" as="geometry" />
        </mxCell>
        <mxCell id="HHDmBZZF9b4SMVAAgY-t-66" value="Recopilación de métricas" style="rounded=1;whiteSpace=wrap;html=1;" vertex="1" parent="1">
          <mxGeometry x="160" y="400" width="120" height="40" as="geometry" />
        </mxCell>
        <mxCell id="HHDmBZZF9b4SMVAAgY-t-71" style="edgeStyle=orthogonalEdgeStyle;rounded=0;orthogonalLoop=1;jettySize=auto;html=1;entryX=1;entryY=0.5;entryDx=0;entryDy=0;" edge="1" parent="1" source="HHDmBZZF9b4SMVAAgY-t-69" target="HHDmBZZF9b4SMVAAgY-t-64">
          <mxGeometry relative="1" as="geometry">
            <Array as="points">
              <mxPoint x="320" y="500" />
              <mxPoint x="320" y="340" />
            </Array>
          </mxGeometry>
        </mxCell>
        <mxCell id="HHDmBZZF9b4SMVAAgY-t-73" style="edgeStyle=orthogonalEdgeStyle;rounded=0;orthogonalLoop=1;jettySize=auto;html=1;entryX=0.5;entryY=0;entryDx=0;entryDy=0;" edge="1" parent="1" source="HHDmBZZF9b4SMVAAgY-t-69" target="HHDmBZZF9b4SMVAAgY-t-74">
          <mxGeometry relative="1" as="geometry">
            <mxPoint x="220" y="560" as="targetPoint" />
            <Array as="points">
              <mxPoint x="220" y="540" />
              <mxPoint x="220" y="540" />
            </Array>
          </mxGeometry>
        </mxCell>
        <mxCell id="HHDmBZZF9b4SMVAAgY-t-69" value="Modelo global a partir de modelos locales" style="rounded=1;whiteSpace=wrap;html=1;" vertex="1" parent="1">
          <mxGeometry x="160" y="480" width="120" height="40" as="geometry" />
        </mxCell>
        <mxCell id="HHDmBZZF9b4SMVAAgY-t-77" style="edgeStyle=orthogonalEdgeStyle;rounded=0;orthogonalLoop=1;jettySize=auto;html=1;entryX=0.5;entryY=0;entryDx=0;entryDy=0;" edge="1" parent="1" source="HHDmBZZF9b4SMVAAgY-t-74" target="HHDmBZZF9b4SMVAAgY-t-76">
          <mxGeometry relative="1" as="geometry" />
        </mxCell>
        <mxCell id="HHDmBZZF9b4SMVAAgY-t-74" value="Exportación de modelo" style="rounded=1;whiteSpace=wrap;html=1;" vertex="1" parent="1">
          <mxGeometry x="160" y="560" width="120" height="40" as="geometry" />
        </mxCell>
        <mxCell id="HHDmBZZF9b4SMVAAgY-t-80" style="edgeStyle=orthogonalEdgeStyle;rounded=0;orthogonalLoop=1;jettySize=auto;html=1;entryX=0.5;entryY=0;entryDx=0;entryDy=0;" edge="1" parent="1" source="HHDmBZZF9b4SMVAAgY-t-76" target="HHDmBZZF9b4SMVAAgY-t-79">
          <mxGeometry relative="1" as="geometry" />
        </mxCell>
        <mxCell id="HHDmBZZF9b4SMVAAgY-t-76" value="Exportación de métricas" style="rounded=1;whiteSpace=wrap;html=1;" vertex="1" parent="1">
          <mxGeometry x="160" y="640" width="120" height="40" as="geometry" />
        </mxCell>
        <mxCell id="HHDmBZZF9b4SMVAAgY-t-83" style="edgeStyle=orthogonalEdgeStyle;rounded=0;orthogonalLoop=1;jettySize=auto;html=1;entryX=0.5;entryY=0;entryDx=0;entryDy=0;" edge="1" parent="1" source="HHDmBZZF9b4SMVAAgY-t-78" target="HHDmBZZF9b4SMVAAgY-t-82">
          <mxGeometry relative="1" as="geometry" />
        </mxCell>
        <mxCell id="HHDmBZZF9b4SMVAAgY-t-78" value="Se generan gráficas" style="rounded=1;whiteSpace=wrap;html=1;" vertex="1" parent="1">
          <mxGeometry x="160" y="840" width="120" height="40" as="geometry" />
        </mxCell>
        <mxCell id="HHDmBZZF9b4SMVAAgY-t-81" value="SI" style="edgeStyle=orthogonalEdgeStyle;rounded=0;orthogonalLoop=1;jettySize=auto;html=1;entryX=0.5;entryY=0;entryDx=0;entryDy=0;" edge="1" parent="1" source="HHDmBZZF9b4SMVAAgY-t-79" target="HHDmBZZF9b4SMVAAgY-t-78">
          <mxGeometry relative="1" as="geometry" />
        </mxCell>
        <mxCell id="HHDmBZZF9b4SMVAAgY-t-84" style="edgeStyle=orthogonalEdgeStyle;rounded=0;orthogonalLoop=1;jettySize=auto;html=1;entryX=1;entryY=0.5;entryDx=0;entryDy=0;" edge="1" parent="1" source="HHDmBZZF9b4SMVAAgY-t-79" target="HHDmBZZF9b4SMVAAgY-t-82">
          <mxGeometry relative="1" as="geometry">
            <Array as="points">
              <mxPoint x="320" y="760" />
              <mxPoint x="320" y="940" />
            </Array>
          </mxGeometry>
        </mxCell>
        <mxCell id="HHDmBZZF9b4SMVAAgY-t-86" value="NO" style="edgeLabel;html=1;align=center;verticalAlign=middle;resizable=0;points=[];" vertex="1" connectable="0" parent="HHDmBZZF9b4SMVAAgY-t-84">
          <mxGeometry x="0.0886" y="1" relative="1" as="geometry">
            <mxPoint as="offset" />
          </mxGeometry>
        </mxCell>
        <mxCell id="HHDmBZZF9b4SMVAAgY-t-79" value="Generar gráficas" style="rhombus;whiteSpace=wrap;html=1;" vertex="1" parent="1">
          <mxGeometry x="180" y="720" width="80" height="80" as="geometry" />
        </mxCell>
        <mxCell id="HHDmBZZF9b4SMVAAgY-t-82" value="Fin" style="rounded=1;whiteSpace=wrap;html=1;" vertex="1" parent="1">
          <mxGeometry x="160" y="920" width="120" height="40" as="geometry" />
        </mxCell>
      </root>
    </mxGraphModel>
  </diagram>
</mxfile>
